<svg xmlns="http://www.w3.org/2000/svg" xmlns:xlink="http://www.w3.org/1999/xlink" width="128" zoomAndPan="magnify" viewBox="0 0 96 95.999999" height="128" preserveAspectRatio="xMidYMid meet" version="1.0"><defs><clipPath id="278474c830"><path d="M 2.984375 2.984375 L 92.984375 2.984375 L 92.984375 92.984375 L 2.984375 92.984375 Z M 2.984375 2.984375 " clip-rule="nonzero"/></clipPath></defs><rect x="-9.6" width="115.2" fill="#ffffff" y="-9.6" height="115.199999" fill-opacity="1"/><rect x="-9.6" width="115.2" fill="#ffffff" y="-9.6" height="115.199999" fill-opacity="1"/><rect x="-9.6" width="115.2" fill="#ffffff" y="-9.6" height="115.199999" fill-opacity="1"/><g clip-path="url(#278474c830)"><path fill="#f49035" d="M 47.984375 2.984375 C 23.171875 2.984375 2.984375 23.171875 2.984375 47.984375 C 2.984375 72.796875 23.171875 92.984375 47.984375 92.984375 C 72.796875 92.984375 92.984375 72.796875 92.984375 47.984375 C 92.984375 23.171875 72.796875 2.984375 47.984375 2.984375 Z M 22.710938 78.136719 C 23.132812 64.546875 34.292969 53.609375 47.984375 53.609375 C 61.679688 53.609375 72.839844 64.546875 73.257812 78.136719 C 66.414062 83.882812 57.601562 87.359375 47.984375 87.359375 C 38.371094 87.359375 29.558594 83.882812 22.710938 78.136719 Z M 33.921875 33.921875 C 33.921875 26.167969 40.230469 19.859375 47.984375 19.859375 C 55.738281 19.859375 62.046875 26.167969 62.046875 33.921875 C 62.046875 41.675781 55.738281 47.984375 47.984375 47.984375 C 40.230469 47.984375 33.921875 41.675781 33.921875 33.921875 Z M 78.34375 73.03125 C 76.308594 62.519531 68.933594 53.910156 59.164062 50.105469 C 64.296875 46.550781 67.671875 40.625 67.671875 33.921875 C 67.671875 23.070312 58.839844 14.234375 47.984375 14.234375 C 37.132812 14.234375 28.296875 23.070312 28.296875 33.921875 C 28.296875 40.625 31.671875 46.550781 36.804688 50.109375 C 27.039062 53.914062 19.664062 62.519531 17.625 73.035156 C 11.996094 66.222656 8.609375 57.492188 8.609375 47.984375 C 8.609375 26.273438 26.273438 8.609375 47.984375 8.609375 C 69.699219 8.609375 87.359375 26.273438 87.359375 47.984375 C 87.359375 57.492188 83.972656 66.222656 78.34375 73.03125 Z M 78.34375 73.03125 " fill-opacity="1" fill-rule="nonzero"/></g></svg>